HIERARCHY
ROOT hips
{
	OFFSET -0.003675 0.299928 -0.021708
	CHANNELS 6 Xposition Yposition Zposition Xrotation Yrotation Zrotation
	JOINT LowerBack
	{
		OFFSET 0.000919 0.177588 0.009275
		CHANNELS 3 Xrotation Yrotation Zrotation
		JOINT spine
		{
			OFFSET 0.000919 0.177588 0.009275
			CHANNELS 3 Xrotation Yrotation Zrotation
			JOINT chest
			{
				OFFSET 0.000456 0.100015 0.004638
				CHANNELS 3 Xrotation Yrotation Zrotation
				JOINT neck
				{
					OFFSET 0.000456 0.100015 0.004638
					CHANNELS 3 Xrotation Yrotation Zrotation
					JOINT head
					{
						OFFSET 0.000924 0.155147 0.009274
						CHANNELS 6 Xposition Yposition Zposition Xrotation Yrotation Zrotation
						End Site
						{
							OFFSET 0.000000 0.153400 0.000000
						}
					}
				}
				JOINT shoulder.L
				{
					OFFSET 0.019937 0.078966 0.057518
					CHANNELS 6 Xposition Yposition Zposition Yrotation Xrotation Zrotation
					JOINT upper_arm.L
					{
						OFFSET 0.177024 -0.020465 -0.095062
						CHANNELS 6 Xposition Yposition Zposition Xrotation Yrotation Zrotation
						JOINT forearm.L
						{
							OFFSET 0.247100 -0.135500 -0.061800
							CHANNELS 3 Xrotation Yrotation Zrotation
							JOINT hand.L
							{
								OFFSET 0.217000 -0.143000 0.039300
								CHANNELS 3 Xrotation Yrotation Zrotation
								JOINT palm.01.L
								{
									OFFSET 0.021770 -0.038291 0.012954
									CHANNELS 6 Xposition Yposition Zposition Yrotation Xrotation Zrotation
									JOINT f_index.01.L
									{
										OFFSET 0.053215 -0.044137 0.008236
										CHANNELS 3 Xrotation Yrotation Zrotation
										JOINT f_index.02.L
										{
											OFFSET 0.036108 -0.024723 -0.010656
											CHANNELS 3 Xrotation Yrotation Zrotation
											JOINT f_index.03.L
											{
												OFFSET 0.021342 -0.014948 -0.010846
												CHANNELS 3 Xrotation Yrotation Zrotation
												End Site
												{
													OFFSET 0.015600 -0.009860 -0.013421
												}
											}
										}
									}
									JOINT thumb.01.L
									{
										OFFSET -0.009090 -0.002348 -0.024223
										CHANNELS 6 Xposition Yposition Zposition Xrotation Yrotation Zrotation
										JOINT thumb.02.L
										{
											OFFSET 0.019713 -0.035076 -0.011120
											CHANNELS 3 Xrotation Yrotation Zrotation
											JOINT thumb.03.L
											{
												OFFSET 0.024877 -0.021748 -0.005176
												CHANNELS 3 Xrotation Yrotation Zrotation
												End Site
												{
													OFFSET 0.016125 -0.013029 -0.001569
												}
											}
										}
									}
								}
								JOINT palm.02.L
								{
									OFFSET 0.032823 -0.025104 0.012281
									CHANNELS 6 Xposition Yposition Zposition Yrotation Xrotation Zrotation
									JOINT f_middle.01.L
									{
										OFFSET 0.055723 -0.038469 0.008037
										CHANNELS 3 Xrotation Yrotation Zrotation
										JOINT f_middle.02.L
										{
											OFFSET 0.038167 -0.027473 -0.015582
											CHANNELS 3 Xrotation Yrotation Zrotation
											JOINT f_middle.03.L
											{
												OFFSET 0.021707 -0.016587 -0.017037
												CHANNELS 3 Xrotation Yrotation Zrotation
												End Site
												{
													OFFSET 0.014112 -0.010584 -0.014294
												}
											}
										}
									}
								}
								JOINT palm.03.L
								{
									OFFSET 0.039230 -0.011402 0.008390
									CHANNELS 6 Xposition Yposition Zposition Yrotation Xrotation Zrotation
									JOINT f_ring.01.L
									{
										OFFSET 0.061796 -0.031470 0.007910
										CHANNELS 3 Xrotation Yrotation Zrotation
										JOINT f_ring.02.L
										{
											OFFSET 0.033092 -0.023401 -0.019127
											CHANNELS 3 Xrotation Yrotation Zrotation
											JOINT f_ring.03.L
											{
												OFFSET 0.021392 -0.015362 -0.017824
												CHANNELS 3 Xrotation Yrotation Zrotation
												End Site
												{
													OFFSET 0.008670 -0.007297 -0.014686
												}
											}
										}
									}
								}
								JOINT palm.04.L
								{
									OFFSET 0.043417 0.002450 0.002889
									CHANNELS 6 Xposition Yposition Zposition Yrotation Xrotation Zrotation
									JOINT f_pinky.01.L
									{
										OFFSET 0.069986 -0.026156 0.003627
										CHANNELS 3 Xrotation Yrotation Zrotation
										JOINT f_pinky.02.L
										{
											OFFSET 0.018520 -0.012813 -0.016429
											CHANNELS 3 Xrotation Yrotation Zrotation
											JOINT f_pinky.03.L
											{
												OFFSET 0.013822 -0.009796 -0.014947
												CHANNELS 3 Xrotation Yrotation Zrotation
												End Site
												{
													OFFSET 0.007238 -0.006103 -0.011657
												}
											}
										}
									}
								}
							}
						}
					}
				}
				JOINT shoulder.R
				{
					OFFSET -0.016662 0.078957 0.057696
					CHANNELS 6 Xposition Yposition Zposition Yrotation Xrotation Zrotation
					JOINT upper_arm.R
					{
						OFFSET -0.176972 -0.020537 -0.095144
						CHANNELS 6 Xposition Yposition Zposition Xrotation Yrotation Zrotation
						JOINT forearm.R
						{
							OFFSET -0.247100 -0.135500 -0.061800
							CHANNELS 3 Xrotation Yrotation Zrotation
							JOINT hand.R
							{
								OFFSET -0.217000 -0.143000 0.039300
								CHANNELS 3 Xrotation Yrotation Zrotation
								JOINT palm.01.R
								{
									OFFSET -0.021773 -0.038278 0.012988
									CHANNELS 6 Xposition Yposition Zposition Yrotation Xrotation Zrotation
									JOINT f_index.01.R
									{
										OFFSET -0.053212 -0.044139 0.008249
										CHANNELS 3 Xrotation Yrotation Zrotation
										JOINT f_index.02.R
										{
											OFFSET -0.036049 -0.024835 -0.010634
											CHANNELS 3 Xrotation Yrotation Zrotation
											JOINT f_index.03.R
											{
												OFFSET -0.021371 -0.014881 -0.010866
												CHANNELS 3 Xrotation Yrotation Zrotation
												End Site
												{
													OFFSET -0.015584 -0.009883 -0.013422
												}
											}
										}
									}
									JOINT thumb.01.R
									{
										OFFSET 0.009113 -0.002381 -0.024211
										CHANNELS 6 Xposition Yposition Zposition Xrotation Yrotation Zrotation
										JOINT thumb.02.R
										{
											OFFSET -0.019694 -0.035097 -0.011088
											CHANNELS 3 Xrotation Yrotation Zrotation
											JOINT thumb.03.R
											{
												OFFSET -0.024867 -0.021762 -0.005168
												CHANNELS 3 Xrotation Yrotation Zrotation
												End Site
												{
													OFFSET -0.016120 -0.013036 -0.001565
												}
											}
										}
									}
								}
								JOINT palm.02.R
								{
									OFFSET -0.032828 -0.025095 0.012286
									CHANNELS 6 Xposition Yposition Zposition Yrotation Xrotation Zrotation
									JOINT f_middle.01.R
									{
										OFFSET -0.055721 -0.038472 0.008040
										CHANNELS 3 Xrotation Yrotation Zrotation
										JOINT f_middle.02.R
										{
											OFFSET -0.038101 -0.027593 -0.015557
											CHANNELS 3 Xrotation Yrotation Zrotation
											JOINT f_middle.03.R
											{
												OFFSET -0.021730 -0.016530 -0.017054
												CHANNELS 3 Xrotation Yrotation Zrotation
												End Site
												{
													OFFSET -0.014096 -0.010608 -0.014293
												}
											}
										}
									}
								}
								JOINT palm.03.R
								{
									OFFSET -0.039192 -0.011488 0.008390
									CHANNELS 6 Xposition Yposition Zposition Yrotation Xrotation Zrotation
									JOINT f_ring.01.R
									{
										OFFSET -0.061839 -0.031387 0.007876
										CHANNELS 3 Xrotation Yrotation Zrotation
										JOINT f_ring.02.R
										{
											OFFSET -0.033068 -0.023437 -0.019125
											CHANNELS 3 Xrotation Yrotation Zrotation
											JOINT f_ring.03.R
											{
												OFFSET -0.021371 -0.015393 -0.017822
												CHANNELS 3 Xrotation Yrotation Zrotation
												End Site
												{
													OFFSET -0.008654 -0.007321 -0.014684
												}
											}
										}
									}
								}
								JOINT palm.04.R
								{
									OFFSET -0.043421 0.002443 0.002845
									CHANNELS 6 Xposition Yposition Zposition Yrotation Xrotation Zrotation
									JOINT f_pinky.01.R
									{
										OFFSET -0.069983 -0.026169 0.003599
										CHANNELS 3 Xrotation Yrotation Zrotation
										JOINT f_pinky.02.R
										{
											OFFSET -0.018501 -0.012842 -0.016428
											CHANNELS 3 Xrotation Yrotation Zrotation
											JOINT f_pinky.03.R
											{
												OFFSET -0.013806 -0.009821 -0.014946
												CHANNELS 3 Xrotation Yrotation Zrotation
												End Site
												{
													OFFSET -0.007226 -0.006121 -0.011655
												}
											}
										}
									}
								}
							}
						}
					}
				}
			}
		}
	}
	JOINT pelvis.L
	{
		OFFSET 0.000000 0.000000 0.000000
		CHANNELS 6 Xposition Yposition Zposition Xrotation Yrotation Zrotation
		JOINT thigh.L
		{
			OFFSET 0.101675 0.001054 -0.000000
			CHANNELS 3 Xrotation Yrotation Zrotation
			JOINT shin.L
			{
				OFFSET 0.000000 -0.534800 0.041000
				CHANNELS 3 Xrotation Yrotation Zrotation
				JOINT foot.L
				{
					OFFSET 0.000000 -0.452000 -0.044800
					CHANNELS 3 Xrotation Yrotation Zrotation
					JOINT toe.L
					{
						OFFSET -0.000000 -0.068500 0.109600
						CHANNELS 3 Xrotation Yrotation Zrotation
						End Site
						{
							OFFSET -0.000000 0.000000 0.067200
						}
					}
				}
				JOINT heel.L
				{
					OFFSET 0.000000 -0.452000 -0.044800
					CHANNELS 3 Xrotation Yrotation Zrotation
					JOINT heel.02.L
					{
						OFFSET -0.038000 -0.085200 0.016200
						CHANNELS 6 Xposition Yposition Zposition Xrotation Yrotation Zrotation
						End Site
						{
							OFFSET 0.080000 -0.000000 0.000000
						}
					}
				}
			}
		}
	}
	JOINT pelvis.R
	{
		OFFSET 0.000000 0.000000 0.000000
		CHANNELS 6 Xposition Yposition Zposition Xrotation Yrotation Zrotation
		JOINT thigh.R
		{
			OFFSET -0.094325 0.001054 0.000000
			CHANNELS 3 Xrotation Yrotation Zrotation
			JOINT shin.R
			{
				OFFSET 0.000000 -0.534800 0.041000
				CHANNELS 3 Xrotation Yrotation Zrotation
				JOINT foot.R
				{
					OFFSET 0.000000 -0.452000 -0.044800
					CHANNELS 3 Xrotation Yrotation Zrotation
					JOINT toe.R
					{
						OFFSET -0.000000 -0.068500 0.109600
						CHANNELS 3 Xrotation Yrotation Zrotation
						End Site
						{
							OFFSET -0.000000 0.000000 0.067200
						}
					}
				}
				JOINT heel.R
				{
					OFFSET 0.000000 -0.452000 -0.044800
					CHANNELS 3 Xrotation Yrotation Zrotation
					JOINT heel.02.R
					{
						OFFSET 0.038000 -0.085200 0.016200
						CHANNELS 6 Xposition Yposition Zposition Xrotation Yrotation Zrotation
						End Site
						{
							OFFSET -0.080000 0.000000 -0.000000
						}
					}
				}
			}
		}
	}
}
MOTION
Frames: 4
Frame Time: 0.041667
-0.003675 0.299928 -0.021708 0.000000 -0.000000 0.000000 -0.000001 0.000000 0.000000 -0.000000 0.000000 0.000000 -0.000000 0.000000 0.000000 -0.000000 -0.000000 -0.000000 0.000924 0.155147 0.009274 -0.000001 -0.000000 -0.000000 0.019937 0.078966 0.057518 0.000001 0.000001 -0.000005 0.177024 -0.020465 -0.095062 -0.000006 -0.000003 0.000015 -0.000009 -0.000004 -0.000009 -0.000000 0.000000 0.000001 0.021770 -0.038291 0.012954 0.000001 -0.000001 0.000001 -0.000001 -0.000001 -0.000002 -0.000001 -0.000000 0.000007 -0.000000 0.000000 0.000003 -0.009090 -0.002348 -0.024224 -0.000002 0.000001 0.000001 0.000001 -0.000001 0.000001 -0.000000 0.000000 -0.000001 0.032823 -0.025104 0.012281 0.000000 -0.000000 0.000000 0.000001 0.000004 -0.000003 -0.000001 -0.000000 -0.000000 -0.000001 -0.000003 0.000003 0.039230 -0.011402 0.008390 -0.000000 -0.000000 0.000008 0.000001 0.000001 -0.000000 -0.000001 0.000003 -0.000001 0.000002 0.000002 -0.000000 0.043417 0.002450 0.002889 -0.000000 0.000001 0.000002 -0.000001 -0.000003 0.000001 -0.000000 0.000003 -0.000000 -0.000000 -0.000003 0.000001 -0.016662 0.078956 0.057696 -0.000001 0.000002 0.000011 -0.176972 -0.020537 -0.095144 0.000001 -0.000003 -0.000005 -0.000006 0.000005 -0.000014 -0.000001 -0.000000 0.000000 -0.021773 -0.038278 0.012988 0.000000 -0.000001 -0.000003 -0.000001 0.000001 -0.000003 -0.000001 -0.000000 0.000001 0.000001 0.000002 0.000007 0.009113 -0.002381 -0.024211 0.000002 -0.000001 0.000004 -0.000000 0.000001 0.000002 0.000000 0.000000 -0.000003 -0.032828 -0.025095 0.012286 0.000001 -0.000001 -0.000001 -0.000001 0.000003 -0.000003 -0.000002 0.000004 -0.000001 0.000001 -0.000002 -0.000000 -0.039192 -0.011488 0.008390 0.000000 0.000000 0.000001 -0.000000 0.000003 -0.000003 -0.000001 0.000001 0.000002 -0.000001 0.000000 -0.000003 -0.043421 0.002443 0.002844 -0.000000 -0.000001 0.000000 -0.000007 0.000003 -0.000002 -0.000003 -0.000000 -0.000000 0.000001 -0.000000 0.000001 -0.000000 0.000000 -0.000000 -0.000001 -0.000000 0.000001 0.000009 -0.000202 0.000014 -0.000026 0.000202 -0.000015 0.000000 -0.000000 -0.000000 0.000002 -0.000000 -0.000000 0.000000 0.000000 -0.000000 -0.038000 -0.085200 0.016200 0.000000 0.000000 0.000000 0.000000 -0.000000 -0.000000 -0.000001 0.000000 -0.000004 0.000008 -0.000013 0.000005 -0.000012 0.000013 -0.000001 -0.000003 -0.000000 -0.000000 0.000000 -0.000000 -0.000000 0.000002 -0.000000 -0.000000 0.038000 -0.085200 0.016200 0.000002 -0.000000 0.000000 
-0.003912 0.269766 -0.022462 5.078414 0.344854 1.062277 -0.000001 0.000000 0.000000 -0.000001 -0.000000 0.000000 0.000000 0.000000 0.000000 -0.000000 -0.000000 0.000000 0.000924 0.155148 0.009274 9.564617 -0.011253 -0.189407 0.019937 0.078966 0.057518 9.576321 5.193547 28.580797 0.177025 -0.020465 -0.095062 -5.769367 11.133494 -54.971579 -17.413685 -21.039819 -6.632961 -0.000003 -0.000003 0.000006 0.021770 -0.038291 0.012954 -0.000001 -0.000003 -0.000000 -0.000002 -0.000001 -0.000000 -0.000002 -0.000000 0.000009 0.000001 0.000000 -0.000001 -0.009090 -0.002348 -0.024223 -0.000000 -0.000001 -0.000004 0.000001 0.000000 -0.000002 0.000002 0.000001 0.000003 0.032823 -0.025104 0.012281 0.000000 -0.000002 0.000007 0.000001 0.000004 -0.000005 0.000002 -0.000001 0.000003 -0.000003 -0.000003 0.000001 0.039230 -0.011402 0.008390 0.000001 -0.000001 0.000004 -0.000000 0.000004 -0.000000 -0.000004 0.000007 0.000003 -0.000003 -0.000003 0.000005 0.043417 0.002450 0.002889 -0.000001 -0.000001 -0.000002 -0.000005 -0.000006 0.000005 0.000002 -0.000000 -0.000001 -0.000002 -0.000002 0.000001 -0.016662 0.078956 0.057696 1.319003 4.271175 -30.314405 -0.176972 -0.020537 -0.095144 -7.759557 -11.085999 52.150151 -9.891981 13.003210 6.507661 -0.000001 0.000002 -0.000000 -0.021773 -0.038278 0.012988 0.000002 0.000000 -0.000003 -0.000000 -0.000001 0.000004 0.000001 -0.000001 -0.000006 0.000002 -0.000002 -0.000001 0.009113 -0.002381 -0.024211 0.000001 -0.000003 0.000004 0.000000 -0.000001 -0.000003 0.000000 -0.000001 -0.000004 -0.032828 -0.025095 0.012286 0.000005 -0.000001 -0.000003 0.000000 0.000001 0.000002 -0.000000 0.000001 0.000001 -0.000003 0.000003 -0.000002 -0.039192 -0.011488 0.008390 0.000003 0.000000 -0.000000 -0.000000 0.000002 -0.000003 0.000000 0.000001 0.000002 -0.000000 -0.000004 0.000002 -0.043421 0.002443 0.002845 0.000003 0.000001 0.000002 -0.000005 0.000003 0.000001 0.000001 -0.000004 -0.000002 -0.000000 0.000001 -0.000005 0.000000 -0.000000 -0.000000 -1.470785 0.012241 -1.180263 -11.780691 -0.191267 -1.524879 41.769411 0.106371 -1.071183 0.000003 0.000000 -0.000000 0.000003 -0.000000 -0.000000 0.000003 0.000000 0.000000 -0.038000 -0.085200 0.016200 -0.000003 -0.000000 -0.000000 -0.000000 0.000000 0.000000 -1.438840 0.011915 0.053925 -9.155603 0.152106 0.984869 37.763378 -0.522405 5.279151 -0.000003 0.000000 -0.000000 -0.000000 -0.000000 -0.000000 0.000003 -0.000001 -0.000001 0.038000 -0.085200 0.016200 -0.000002 -0.000000 -0.000001 
-0.003912 0.269776 -0.022462 5.077076 0.343528 1.061953 -0.000001 0.000000 -0.000000 -0.000001 0.000000 -0.000000 -0.000001 -0.000000 -0.000000 -0.000001 -0.000000 -0.000000 0.000924 0.155148 0.009274 9.558323 -0.011244 -0.191826 0.019937 0.078966 0.057518 9.575574 5.193821 28.579812 0.177025 -0.020465 -0.095062 -5.770651 11.133364 -54.975346 -17.410610 -21.038767 -6.628445 0.000002 -0.000002 0.000007 0.021770 -0.038291 0.012954 -0.000003 -0.000001 0.000001 -0.000000 0.000001 -0.000000 -0.000002 -0.000004 0.000012 -0.000001 0.000001 -0.000003 -0.009090 -0.002348 -0.024223 0.000003 0.000001 -0.000004 0.000000 0.000000 0.000001 0.000002 0.000000 -0.000002 0.032823 -0.025104 0.012281 -0.000000 0.000002 0.000002 0.000001 0.000001 -0.000005 -0.000006 -0.000003 0.000003 -0.000001 0.000001 0.000003 0.039230 -0.011402 0.008390 -0.000001 0.000001 0.000008 0.000000 0.000001 0.000003 -0.000001 0.000005 0.000001 -0.000000 0.000002 0.000003 0.043417 0.002450 0.002889 -0.000001 -0.000001 -0.000007 -0.000001 -0.000002 0.000003 0.000001 0.000003 0.000001 0.000000 0.000003 0.000000 -0.016662 0.078956 0.057696 1.320361 4.271354 -30.313104 -0.176972 -0.020537 -0.095144 -7.756534 -11.086153 52.151513 -9.891277 13.002506 6.507447 -0.000001 0.000000 -0.000002 -0.021773 -0.038278 0.012988 -0.000001 -0.000000 -0.000003 -0.000002 0.000001 -0.000003 -0.000003 0.000003 -0.000007 0.000003 0.000002 0.000005 0.009114 -0.002381 -0.024211 0.000001 -0.000003 -0.000004 -0.000000 -0.000001 -0.000001 -0.000001 0.000001 -0.000003 -0.032828 -0.025095 0.012286 0.000001 -0.000001 -0.000005 -0.000004 0.000002 -0.000001 0.000000 -0.000004 -0.000001 -0.000003 -0.000003 -0.000006 -0.039192 -0.011488 0.008390 -0.000001 0.000003 -0.000002 0.000000 0.000004 -0.000005 0.000001 0.000001 0.000002 -0.000004 0.000001 0.000000 -0.043421 0.002443 0.002844 0.000000 0.000001 -0.000007 -0.000003 0.000006 -0.000004 0.000001 -0.000001 -0.000000 -0.000001 -0.000005 -0.000001 0.000000 0.000000 -0.000000 -1.470651 0.012241 -1.180258 -11.780586 -0.191267 -1.524904 41.770152 0.106429 -1.071759 0.000003 0.000000 -0.000000 -0.000000 0.000000 0.000000 0.000002 -0.000000 -0.000000 -0.038000 -0.085200 0.016200 -0.000000 -0.000000 -0.000000 0.000000 0.000000 -0.000000 -1.438710 0.011915 0.053922 -9.155001 0.152070 0.984473 37.764755 -0.522276 5.277858 0.000000 0.000000 -0.000000 0.000006 -0.000000 -0.000000 0.000007 -0.000000 -0.000000 0.038000 -0.085200 0.016200 0.000001 -0.000000 -0.000000 
-0.003137 0.255108 -0.022279 3.794560 3.283242 0.159062 -0.000000 0.000000 -0.000000 0.000000 -0.000000 0.000000 -0.000001 -0.000000 0.000000 -0.000000 -0.000001 -0.000000 0.000924 0.155147 0.009274 9.256576 -0.011729 0.669356 0.019937 0.078966 0.057518 5.779638 3.498358 28.126307 0.177024 -0.020465 -0.095062 -4.666284 11.931640 -61.632123 -16.550394 -16.535383 -15.966035 -0.000003 0.000001 0.000001 0.021770 -0.038291 0.012954 0.000001 -0.000000 0.000001 -0.000001 0.000000 -0.000002 0.000002 -0.000001 0.000003 -0.000002 0.000002 -0.000001 -0.009090 -0.002348 -0.024224 -0.000004 -0.000004 0.000002 0.000001 0.000001 0.000005 -0.000002 -0.000003 -0.000001 0.032823 -0.025104 0.012281 0.000002 -0.000001 0.000007 0.000004 0.000002 -0.000005 -0.000000 -0.000004 -0.000000 -0.000002 0.000004 -0.000004 0.039230 -0.011402 0.008390 0.000000 -0.000000 0.000006 0.000002 0.000000 -0.000002 -0.000004 0.000005 0.000001 0.000002 -0.000002 0.000003 0.043417 0.002450 0.002889 -0.000001 -0.000001 0.000002 -0.000001 -0.000003 -0.000002 0.000001 0.000001 -0.000003 -0.000002 -0.000001 0.000001 -0.016662 0.078956 0.057696 -1.245744 2.953777 -28.138561 -0.176972 -0.020537 -0.095144 -6.255282 -11.851111 59.076622 -9.639145 11.812968 11.649344 -0.000002 0.000002 -0.000002 -0.021773 -0.038278 0.012988 -0.000003 -0.000000 -0.000007 0.000001 0.000001 0.000001 -0.000002 -0.000002 -0.000003 -0.000000 -0.000002 -0.000003 0.009114 -0.002381 -0.024211 0.000003 -0.000001 -0.000001 0.000000 -0.000000 0.000000 0.000000 -0.000000 -0.000001 -0.032828 -0.025095 0.012286 -0.000000 -0.000001 -0.000003 -0.000000 0.000000 -0.000001 0.000002 0.000001 0.000001 -0.000000 -0.000000 -0.000002 -0.039192 -0.011488 0.008390 -0.000001 -0.000001 -0.000000 0.000000 0.000002 -0.000005 -0.000001 -0.000001 -0.000005 0.000001 0.000000 -0.000003 -0.043421 0.002443 0.002845 -0.000005 -0.000001 0.000000 -0.000002 0.000005 -0.000002 -0.000001 -0.000002 -0.000002 0.000000 0.000002 0.000002 0.000000 0.000000 -0.000000 -1.643581 -0.039576 -0.518990 -12.805509 -0.299033 -2.804553 48.078829 0.135220 -1.362300 -0.000003 0.000000 -0.000000 -0.000002 -0.000000 0.000000 -0.000003 -0.000001 0.000000 -0.038000 -0.085200 0.016200 0.000005 0.000000 -0.000001 -0.000000 -0.000000 0.000000 -1.609527 -0.039531 0.715219 -5.962706 0.360118 3.886283 37.568984 -0.357251 3.607705 0.000000 0.000000 0.000000 0.000004 -0.000000 0.000000 0.000002 -0.000000 -0.000000 0.038000 -0.085200 0.016200 0.000002 0.000000 0.000000 
